<svg xmlns="http://www.w3.org/2000/svg" xmlns:xlink="http://www.w3.org/1999/xlink" width="36" height="36" viewBox="0 0 36 36">
    <defs>
        <filter id="a" width="150%" height="150%" x="-25%" y="-17.9%" filterUnits="objectBoundingBox">
            <feOffset dy="2" in="SourceAlpha" result="shadowOffsetOuter1"/>
            <feGaussianBlur in="shadowOffsetOuter1" result="shadowBlurOuter1" stdDeviation="2"/>
            <feColorMatrix in="shadowBlurOuter1" result="shadowMatrixOuter1" values="0 0 0 0 0.188536352 0 0 0 0 0.188536352 0 0 0 0 0.188536352 0 0 0 0.200888813 0"/>
            <feMerge>
                <feMergeNode in="shadowMatrixOuter1"/>
                <feMergeNode in="SourceGraphic"/>
            </feMerge>
        </filter>
        <ellipse id="b" cx="13.716" cy="13.73" rx="13.716" ry="13.73"/>
    </defs>
    <g fill="none" fill-rule="evenodd" filter="url(#a)" transform="translate(4.369 2.115)">
        <mask id="c" fill="#fff">
            <use xlink:href="#b"/>
        </mask>
        <use fill="#6FCA0B" xlink:href="#b"/>
        <g fill="#FFF" fill-rule="nonzero" mask="url(#c)">
            <g transform="rotate(89 6.42 12.053)">
                <path d="M15.623 1.321c.001-.091-.001-.19-.026-.294-.118-.502-.518-.802-1.075-.811C12.442.2 10.871.186 8.96.17L7.905.16 6.852.137C4.942.09 3.37.053 1.29 0 .733-.009.324.278.19.776a1.157 1.157 0 0 0-.035.293C.1 3.217.05 5.38 0 7.497c-.019.649.41 1.094 1.054 1.113l7.14.164.001.002h.13l.153.004.002-.002 5.996.05c.645.003 1.087-.428 1.09-1.077.02-2.118.04-4.281.056-6.43zm-3.956 5.977c-1.507-.017-2.725-.025-3.808-.035l-.07-.002h-.068c-1.083-.026-2.3-.057-3.807-.09-.182-.796-.684-1.327-1.467-1.55.02-.774.045-1.606.065-2.579.754-.132 1.25-.582 1.483-1.311l.02-.054c.016-.038.027-.068.04-.106 1.392.034 2.605.062 3.826.093 1.22.008 2.434.02 3.827.032.01.038.022.07.036.107l.019.054c.209.736.69 1.202 1.44 1.36-.013.972-.015 1.804-.02 2.579-.789.197-1.309.712-1.516 1.502z"/>
                <circle cx="7.647" cy="4.647" r="1.647"/>
            </g>
        </g>
    </g>
</svg>
