<svg xmlns="http://www.w3.org/2000/svg" xmlns:xlink="http://www.w3.org/1999/xlink" width="36" height="35" viewBox="0 0 36 35">
    <defs>
        <filter id="a" width="150%" height="150%" x="-25%" y="-17.9%" filterUnits="objectBoundingBox">
            <feOffset dy="2" in="SourceAlpha" result="shadowOffsetOuter1"/>
            <feGaussianBlur in="shadowOffsetOuter1" result="shadowBlurOuter1" stdDeviation="2"/>
            <feColorMatrix in="shadowBlurOuter1" result="shadowMatrixOuter1" values="0 0 0 0 0.188536352 0 0 0 0 0.188536352 0 0 0 0 0.188536352 0 0 0 0.200888813 0"/>
            <feMerge>
                <feMergeNode in="shadowMatrixOuter1"/>
                <feMergeNode in="SourceGraphic"/>
            </feMerge>
        </filter>
        <ellipse id="b" cx="13.716" cy="13.73" rx="13.716" ry="13.73"/>
    </defs>
    <g fill="none" fill-rule="evenodd">
        <use fill="#1E4EFF" filter="url(#a)" transform="translate(4.369 1.721)" xlink:href="#b"/>
        <g fill="#FFF" fill-rule="nonzero" transform="translate(9 5)">
            <path d="M17.846 10.267c.002-.091 0-.19-.025-.294-.118-.502-.518-.802-1.075-.811-2.08-.015-3.652-.03-5.563-.045l-1.054-.01-1.053-.024c-1.91-.047-3.483-.084-5.562-.137-.557-.009-.966.278-1.1.776a1.157 1.157 0 0 0-.035.293c-.054 2.148-.105 4.311-.155 6.428-.018.649.41 1.095 1.055 1.113l7.14.164.001.002.13.001.153.004.002-.003 5.996.05c.645.003 1.087-.428 1.09-1.077.02-2.118.04-4.281.055-6.43zm-3.955 5.977c-1.507-.017-2.725-.025-3.808-.035l-.07-.001-.068-.002c-1.083-.025-2.3-.056-3.807-.088-.182-.797-.685-1.328-1.467-1.55.02-.775.045-1.607.064-2.58.754-.132 1.25-.582 1.483-1.311l.02-.054c.016-.038.028-.068.04-.106 1.393.034 2.606.062 3.827.093 1.22.009 2.434.02 3.827.032.01.038.022.07.036.107l.019.054c.209.736.69 1.202 1.439 1.36-.012.972-.014 1.804-.02 2.579-.788.197-1.308.712-1.515 1.502z"/>
            <path d="M17.846 10.267c.002-.091 0-.19-.025-.294-.118-.502-.518-.802-1.075-.811-2.08-.015-3.652-.03-5.563-.045l-1.054-.01-1.053-.024c-1.91-.047-3.483-.084-5.562-.137-.557-.009-.966.278-1.1.776a1.157 1.157 0 0 0-.035.293c-.054 2.148-.105 4.311-.155 6.428-.018.649.41 1.095 1.055 1.113l7.14.164.001.002.13.001.153.004.002-.003 5.996.05c.645.003 1.087-.428 1.09-1.077.02-2.118.04-4.281.055-6.43zm-3.955 5.977c-1.507-.017-2.725-.025-3.808-.035l-.07-.001-.068-.002c-1.083-.025-2.3-.056-3.807-.088-.182-.797-.685-1.328-1.467-1.55.02-.775.045-1.607.064-2.58.754-.132 1.25-.582 1.483-1.311l.02-.054c.016-.038.028-.068.04-.106 1.393.034 2.606.062 3.827.093 1.22.009 2.434.02 3.827.032.01.038.022.07.036.107l.019.054c.209.736.69 1.202 1.439 1.36-.012.972-.014 1.804-.02 2.579-.788.197-1.308.712-1.515 1.502z"/>
            <path d="M16.661 8.264c-.029-.515-.37-.88-.919-.986-2.045-.374-3.59-.66-5.47-1.006l-1.037-.193-1.032-.206c-1.875-.376-3.416-.685-5.454-1.097-.548-.105-1 .107-1.219.574a1.097 1.097 0 0 0-.085.283C1.019 7.739.595 9.86.18 11.937c-.13.636.214 1.15.846 1.279l.425.085c.027-1.1.053-2.206.081-3.307.002-.125.01-.301.065-.498.222-.822.922-1.361 1.804-1.395l.023-.117c.765 0 1.332-.357 1.687-1.035l.03-.049c.022-.035.039-.061.058-.097 1.365.274 2.555.51 3.752.754 1.2.219 2.394.44 3.764.693l.003.032 3.944.032v-.05zM12.877 4.902l-.866-.598-.858-.61L6.625.46C6.169.14 5.669.147 5.279.485a1.12 1.12 0 0 0-.193.222c-.767 1.07-1.534 2.148-2.297 3.218l.072.011.048.009c.895.18 1.695.34 2.467.497.177-.248.362-.506.554-.78.698.313 1.361.219 1.963-.254l.047-.032c.034-.022.061-.04.091-.065 1.134.81 2.123 1.512 3.117 2.223l.074.05.046.01c1.197.221 2.302.425 3.563.656-.637-.438-1.269-.876-1.954-1.348z"/>
            <circle cx="10.06" cy="13.384" r="1.647"/>
        </g>
    </g>
</svg>
